<?xml version="1.0" encoding="utf-8"?>
<!-- Generator: Adobe Illustrator 14.0.0, SVG Export Plug-In . SVG Version: 6.00 Build 43363)  -->
<!DOCTYPE svg PUBLIC "-//W3C//DTD SVG 1.1//EN" "http://www.w3.org/Graphics/SVG/1.1/DTD/svg11.dtd">
<svg version="1.1" id="Layer_1" xmlns="http://www.w3.org/2000/svg" xmlns:xlink="http://www.w3.org/1999/xlink" x="0px" y="0px"
	 width="889.455px" height="1000px" viewBox="0 0 889.455 1000" enable-background="new 0 0 889.455 1000" xml:space="preserve">
<g>
	<path fill="#78216B" d="M22.055,152.471C91.883,134.237,161.727,116.115,231.5,97.66c10.151-2.691,15.021-2.304,16.428,10.648
		c2.027,18.853,7.012,37.429,11.45,55.929c4.006,16.871,12.143,21.469,29.251,17.306c20.748-5.07,41.518-10.152,62.129-15.765
		c20.895-5.69,24.213-11.639,18.835-32.337c-5.049-19.563-9.656-39.285-16.065-58.379c-2.633-7.838,0.043-8.734,5.821-10.222
		c67.113-17.336,134.172-34.707,201.2-52.253c5.624-1.478,9.84-1.627,13.143,4.249c16.735,30.159,33.723,60.205,51.018,91.008
		c-40.901,1.968-77.269,15.434-114.237,25.715c-18.175,5.062-22.472,17.629-15.477,35.084c7.528,18.742,14.894,37.576,23.151,56.01
		c6.486,14.482,2.305,23.624-12.313,27.899c-17.158,5.017-34.483,9.58-51.924,13.596c-14.482,3.379-24.585-1.572-29.097-16.85
		c-5.398-18.256-11.609-36.257-17.59-54.373c-7.055-21.38-18.877-29.392-40.42-24.467c-29.251,6.653-58.335,14.326-87.076,22.873
		c-21.555,6.421-27.581,18.688-23.083,41.084c3.632,18.104,7.329,36.22,10.784,54.351c3.487,18.313-0.665,25.451-18.802,30.792
		c-16.051,4.714-32.213,9.202-48.544,12.763c-17.271,3.73-23.506-0.973-25.798-18.146c-2.567-19.461-4.648-38.971-7.151-58.464
		c-2.799-21.954-12.94-30.149-34.208-24.414c-35.495,9.624-72.729,13.748-105.701,31.874c-1.352,0.751-3.422,0.23-5.136,0.308
		V152.47L22.055,152.471L22.055,152.471z"/>
	<path fill="#78216B" d="M531.818,629.287c12.592-22.408,8.813-43.461,1.928-64.912c-12.899-40.164-25.21-80.481-37.496-120.745
		c-5.823-19.071-0.854-28.164,18.531-33.388c23.979-6.465,48.216-11.925,72.206-18.304c34.712-9.277,44.748-30.144,30.337-62.26
		c-10.386-23.188-21.104-46.226-31.469-69.444c-7.559-16.969-4.417-23.77,13.765-29.17c13.289-3.919,26.759-7.173,40.166-10.671
		c13.345-3.465,27.138-5.815,36.779-19.92c24.079,42.117,46.982,82.104,69.833,122.183c38.931,68.233,77.742,136.479,116.809,204.68
		c4.669,8.131,7.522,13.405-5.327,16.802c-106.651,28.088-213.169,56.685-319.713,85.149
		C537.122,629.594,535.97,629.287,531.818,629.287"/>
	<path fill="#78216B" d="M365.362,678.258c-69.206,18.323-134.422,35.688-199.654,52.968
		C124.974,741.97,84.111,752.2,43.567,763.582c-12.18,3.492-14.704,0.15-14.748-11.45C28.1,630.88,27.073,509.669,25.797,388.384
		c-0.099-10.436,1.031-15.101,13.894-14.245c18.58,1.23,35.938-7.546,53.854-11.676c22.175-5.12,27.835-1.468,29.917,21.51
		c2.303,25.3,4.336,50.598,6.174,75.897c2.163,29.56,21.91,44.824,50.981,37.688c29.134-7.156,57.902-15.774,86.879-23.646
		c25.873-7.08,33.16-2.627,37.532,24.09c6.298,38.717,12.765,77.443,17.802,116.407
		C326.303,641.226,336.045,663.217,365.362,678.258"/>
	<path fill="#A71924" d="M414.576,290.932c14.602,22.648,20.083,48.755,25.429,74.396c2.704,12.877-7.848,22.561-20.603,26.127
		c-26.563,7.481-53.166,14.984-80.113,20.823c-21.387,4.626-32.252-3.428-36.489-25.365c-4.151-21.298-12.353-42.046-9.785-64.351
		c-2.104-12.515,4.363-19.899,15.256-23.738c27.288-9.59,55.484-15.92,83.817-21.466
		C402.992,275.185,411.408,279.239,414.576,290.932"/>
	<path fill="#CECECE" d="M414.576,290.932c-10.648-6.238-21.579-6.4-33.383-3.071c-19.46,5.503-39.138,10.229-58.787,15.001
		c-12.289,3-22.598,8.64-29.402,19.672c-19.364-25.113-20.008-55.761-23.606-85.088c-1.573-12.726,9.708-20.97,21.114-24.313
		c25.928-7.649,52.188-14.25,78.504-20.457c10.919-2.595,23.219,0.751,26.991,10.747C406.624,231.446,423.1,258.702,414.576,290.932
		"/>
</g>
<g>
	<polygon fill="#A71924" points="593.41,876.548 621.053,860.59 583.832,796.111 546.963,796.111 	"/>
	<polygon fill="#A71924" points="641.094,860.59 668.747,876.548 715.198,796.111 678.336,796.111 	"/>
	<path fill="#A71924" d="M614.699,849.587c-7.078-12.146-18.958-18.41-26.567-14.006c-7.586,4.406-8.066,17.798-1.075,29.962l0,0
		l28.572,49.5l27.643-15.967L614.699,849.587L614.699,849.587z"/>
	<path fill="#A71924" d="M675.097,865.544c6.985-12.194,6.47-25.61-1.148-30.011c-7.614-4.364-19.451,1.914-26.49,14.045l0,0
		l-28.575,49.508l27.644,15.951L675.097,865.544L675.097,865.544z"/>
	<path fill="#78216B" d="M185.297,879.564v94.077c-12.382,6.079-23.982,10.505-34.79,13.253
		c-10.819,2.754-22.607,4.136-35.389,4.136c-21.429,0-38.924-4.24-52.487-12.687c-13.563-8.427-23.489-19.989-29.782-34.646
		c-6.287-14.646-9.43-31.791-9.43-51.457c0-22.998,4.17-41.964,12.531-56.903c8.345-14.945,19.507-25.852,33.465-32.736
		c13.953-6.879,29.577-10.317,46.883-10.317c24.176,0,45.602,5.9,64.278,17.688l-14.188,24.771
		c-14.778-9.427-30.741-14.14-47.881-14.14c-20.694,0-35.912,6.188-45.671,18.57c-9.757,12.385-14.629,29.588-14.629,51.595
		c0,23.396,4.584,41.135,13.754,53.229c9.166,12.086,24.007,18.142,44.521,18.142c12.022,0,23.759-2.068,35.192-6.196v-48.67
		h-45.408l3.835-27.706L185.297,879.564L185.297,879.564z"/>
	<path fill="#78216B" d="M370.162,985.107v2.085h-38.041l-51.587-72.261h-22.99v72.261h-33.617V796.111h63.098
		c15.73,0,28.94,2.452,39.653,7.367c10.737,4.914,18.761,11.694,24.179,20.347c5.406,8.653,8.105,18.672,8.105,30.073
		c0,13.56-3.688,25.403-11.06,35.525c-7.367,10.131-18.147,17.252-32.288,21.389L370.162,985.107z M257.535,888.401h25.351
		c13.376,0,23.595-2.8,30.659-8.4c7.09-5.606,10.609-13.907,10.609-24.916c0-10.222-3.181-17.991-9.569-23.297
		c-6.395-5.3-15.687-7.953-27.877-7.953h-29.18L257.535,888.401L257.535,888.401z"/>
	<polygon fill="#78216B" points="431.5,959.161 522.612,959.161 522.612,987.192 397.887,987.192 397.887,796.111 521.124,796.111 
		521.124,823.834 431.5,823.834 431.5,876.306 509.341,876.306 505.514,903.436 431.5,903.436 	"/>
	<path fill="#78216B" d="M755.025,978.381c-13.337-8.166-23.188-19.618-29.461-34.364c-6.3-14.739-9.438-32.034-9.438-51.9
		c0-23.586,4.063-42.847,12.244-57.787c8.147-14.934,18.896-25.745,32.274-32.436c13.367-6.672,28.202-10.021,44.537-10.021
		c11.983,0,23.031,1.484,33.16,4.431c10.11,2.944,20.005,7.264,29.632,12.973l-13.643,25.063
		c-15.382-9.24-31.299-13.861-47.709-13.861c-19.148,0-33.244,6.147-42.231,18.434c-8.995,12.286-13.479,29.436-13.479,51.443
		c0,22.611,4.95,40.155,14.82,52.646c9.882,12.482,24.106,18.724,42.688,18.724c9.489,0,17.868-1.237,25.175-3.686
		c7.305-2.469,14.822-5.938,22.531-10.468l13.329,24.17c-10.605,6.293-20.889,11.028-30.83,14.164
		c-9.912,3.139-20.756,4.72-32.586,4.72C785.399,990.62,768.403,986.529,755.025,978.381"/>
	<path fill="#A71924" d="M648.153,903.357c0-14.004-7.73-25.353-17.277-25.353c-9.538,0-17.271,11.349-17.271,25.353l0,0v69.1
		h34.553v-69.1H648.153z"/>
	<path fill="#A71924" d="M648.153,956.235c0-14.005-7.73-25.354-17.277-25.354c-9.538,0-17.271,11.352-17.271,25.354v30.957h34.553
		v-30.957H648.153z"/>
</g>
</svg>
