<?xml version="1.0" encoding="utf-8"?>
<!-- Generator: Adobe Illustrator 14.0.0, SVG Export Plug-In . SVG Version: 6.00 Build 43363)  -->
<!DOCTYPE svg PUBLIC "-//W3C//DTD SVG 1.1//EN" "http://www.w3.org/Graphics/SVG/1.1/DTD/svg11.dtd">
<svg version="1.1" id="Layer_1" xmlns="http://www.w3.org/2000/svg" xmlns:xlink="http://www.w3.org/1999/xlink" x="0px" y="0px"
	 width="889.456px" height="1000px" viewBox="66.113 0 889.456 1000" enable-background="new 66.113 0 889.456 1000"
	 xml:space="preserve">
<g>
	<path fill="#78216B" d="M86.818,152.471c69.828-18.234,139.672-36.355,209.445-54.811c10.151-2.691,15.021-2.303,16.428,10.649
		c2.027,18.852,7.011,37.429,11.45,55.929c4.006,16.871,12.142,21.468,29.251,17.305c20.748-5.07,41.517-10.152,62.129-15.764
		c20.895-5.691,24.213-11.639,18.835-32.337c-5.049-19.564-9.656-39.285-16.066-58.379c-2.633-7.838,0.043-8.735,5.822-10.222
		c67.113-17.336,134.172-34.707,201.2-52.253c5.624-1.477,9.84-1.627,13.143,4.249c16.735,30.159,33.722,60.205,51.017,91.008
		c-40.901,1.968-77.268,15.434-114.237,25.715c-18.175,5.061-22.472,17.629-15.477,35.084c7.529,18.742,14.894,37.576,23.152,56.01
		c6.486,14.482,2.304,23.624-12.313,27.899c-17.158,5.017-34.483,9.58-51.924,13.596c-14.482,3.379-24.585-1.573-29.096-16.85
		c-5.399-18.256-11.61-36.257-17.59-54.373c-7.055-21.38-18.877-29.392-40.42-24.467c-29.251,6.654-58.335,14.326-87.077,22.873
		c-21.554,6.421-27.581,18.688-23.083,41.084c3.632,18.104,7.33,36.22,10.785,54.351c3.487,18.314-0.665,25.451-18.802,30.792
		c-16.051,4.714-32.213,9.202-48.544,12.763c-17.272,3.73-23.506-0.973-25.798-18.146c-2.567-19.461-4.648-38.971-7.151-58.464
		c-2.799-21.954-12.941-30.149-34.208-24.414c-35.495,9.624-72.73,13.748-105.701,31.874c-1.352,0.751-3.422,0.231-5.136,0.308
		V152.47L86.818,152.471L86.818,152.471z"/>
	<path fill="#78216B" d="M596.581,629.288c12.591-22.409,8.813-43.461,1.927-64.913c-12.899-40.164-25.21-80.481-37.496-120.745
		c-5.823-19.071-0.854-28.164,18.531-33.387c23.979-6.465,48.216-11.925,72.207-18.304c34.711-9.277,44.748-30.144,30.336-62.26
		c-10.385-23.187-21.104-46.226-31.468-69.444c-7.559-16.969-4.417-23.77,13.764-29.17c13.289-3.919,26.759-7.173,40.166-10.671
		c13.345-3.465,27.138-5.816,36.78-19.92c24.079,42.117,46.982,82.104,69.833,122.183c38.93,68.233,77.742,136.479,116.808,204.679
		c4.669,8.131,7.523,13.406-5.327,16.802c-106.651,28.088-213.169,56.685-319.713,85.15
		C601.885,629.594,600.733,629.288,596.581,629.288"/>
	<path fill="#78216B" d="M430.125,678.258c-69.207,18.324-134.423,35.688-199.655,52.968
		c-40.733,10.744-81.597,20.975-122.141,32.356c-12.179,3.493-14.704,0.151-14.748-11.45
		c-0.718-121.252-1.746-242.463-3.021-363.748c-0.099-10.435,1.031-15.1,13.893-14.245c18.58,1.231,35.938-7.546,53.854-11.676
		c22.175-5.12,27.835-1.467,29.917,21.51c2.303,25.3,4.336,50.598,6.174,75.898c2.163,29.559,21.91,44.824,50.981,37.688
		c29.134-7.156,57.903-15.774,86.879-23.646c25.873-7.081,33.16-2.627,37.532,24.089c6.298,38.717,12.765,77.444,17.802,116.408
		C391.066,641.226,400.808,663.217,430.125,678.258"/>
	<path fill="#78216B" d="M479.339,290.932c14.602,22.649,20.083,48.755,25.429,74.396c2.704,12.877-7.848,22.56-20.602,26.127
		c-26.564,7.481-53.166,14.984-80.114,20.823c-21.387,4.626-32.252-3.428-36.489-25.365c-4.152-21.298-12.353-42.046-9.785-64.351
		c-2.104-12.515,4.363-19.899,15.255-23.738c27.289-9.59,55.485-15.92,83.818-21.466
		C467.755,275.185,476.171,279.239,479.339,290.932"/>
	<path fill="#CECECE" d="M479.339,290.932c-10.648-6.238-21.579-6.4-33.382-3.071c-19.46,5.503-39.138,10.229-58.788,15.001
		c-12.289,3-22.597,8.639-29.402,19.672c-19.364-25.114-20.008-55.761-23.607-85.088c-1.573-12.726,9.708-20.97,21.115-24.314
		c25.927-7.649,52.188-14.25,78.504-20.457c10.919-2.595,23.219,0.751,26.991,10.747
		C471.387,231.446,487.863,258.702,479.339,290.932"/>
</g>
<g>
	<polygon fill="#69B332" points="658.173,876.548 685.816,860.59 648.595,796.111 611.726,796.111 	"/>
	<polygon fill="#00B2DB" points="705.857,860.59 733.51,876.548 779.961,796.111 743.099,796.111 	"/>
	<path fill="#0B682F" d="M679.462,849.587c-7.078-12.146-18.958-18.41-26.567-14.005c-7.586,4.406-8.066,17.797-1.075,29.961l0,0
		l28.572,49.5l27.643-15.966L679.462,849.587L679.462,849.587z"/>
	<path fill="#065879" d="M739.86,865.544c6.985-12.194,6.47-25.61-1.149-30.01c-7.614-4.365-19.451,1.914-26.49,14.045l0,0
		l-28.575,49.507l27.644,15.952L739.86,865.544L739.86,865.544z"/>
	<path fill="#78216B" d="M250.06,879.564v94.077c-12.382,6.079-23.983,10.505-34.79,13.253c-10.82,2.754-22.608,4.136-35.389,4.136
		c-21.429,0-38.924-4.24-52.487-12.687c-13.563-8.427-23.489-19.989-29.782-34.646c-6.288-14.646-9.43-31.791-9.43-51.457
		c0-22.998,4.17-41.964,12.531-56.904c8.345-14.945,19.507-25.851,33.465-32.736c13.953-6.879,29.577-10.317,46.883-10.317
		c24.176,0,45.601,5.9,64.278,17.688l-14.187,24.771c-14.779-9.427-30.742-14.14-47.881-14.14c-20.695,0-35.912,6.188-45.671,18.57
		c-9.757,12.385-14.629,29.588-14.629,51.595c0,23.396,4.584,41.135,13.754,53.229c9.166,12.086,24.007,18.141,44.521,18.141
		c12.023,0,23.759-2.068,35.193-6.196v-48.67h-45.408l3.835-27.706L250.06,879.564L250.06,879.564z"/>
	<path fill="#78216B" d="M434.925,985.107v2.085h-38.041l-51.587-72.261h-22.99v72.261H288.69V796.111h63.097
		c15.731,0,28.941,2.452,39.654,7.367c10.737,4.914,18.76,11.694,24.178,20.347c5.407,8.653,8.106,18.672,8.106,30.073
		c0,13.56-3.688,25.403-11.06,35.525c-7.367,10.131-18.147,17.252-32.288,21.389L434.925,985.107z M322.298,888.401h25.351
		c13.376,0,23.594-2.8,30.659-8.4c7.09-5.607,10.609-13.908,10.609-24.916c0-10.222-3.18-17.992-9.569-23.297
		c-6.395-5.3-15.687-7.953-27.877-7.953h-29.18L322.298,888.401L322.298,888.401z"/>
	<polygon fill="#78216B" points="496.263,959.162 587.375,959.162 587.375,987.192 462.65,987.192 462.65,796.111 585.887,796.111 
		585.887,823.834 496.263,823.834 496.263,876.306 574.104,876.306 570.277,903.436 496.263,903.436 	"/>
	<path fill="#78216B" d="M819.788,978.381c-13.337-8.166-23.188-19.618-29.461-34.364c-6.3-14.739-9.438-32.034-9.438-51.9
		c0-23.586,4.063-42.847,12.244-57.787c8.148-14.934,18.897-25.745,32.275-32.436c13.367-6.672,28.202-10.021,44.537-10.021
		c11.983,0,23.031,1.484,33.16,4.43c10.11,2.945,20.005,7.264,29.632,12.973l-13.643,25.063
		c-15.382-9.24-31.299-13.861-47.709-13.861c-19.148,0-33.244,6.148-42.231,18.434c-8.995,12.286-13.479,29.435-13.479,51.443
		c0,22.611,4.95,40.155,14.821,52.645c9.881,12.483,24.106,18.724,42.687,18.724c9.489,0,17.868-1.237,25.175-3.685
		c7.305-2.469,14.822-5.938,22.531-10.468l13.329,24.17c-10.605,6.293-20.888,11.028-30.83,14.164
		c-9.912,3.138-20.756,4.72-32.586,4.72C850.162,990.621,833.166,986.529,819.788,978.381"/>
	<path fill="#A71924" d="M712.916,903.357c0-14.004-7.731-25.353-17.278-25.353c-9.538,0-17.271,11.349-17.271,25.353l0,0v69.1
		h34.552v-69.1H712.916z"/>
	<path fill="#E95D0C" d="M712.916,956.235c0-14.005-7.731-25.355-17.278-25.355c-9.538,0-17.271,11.352-17.271,25.355v30.957h34.552
		v-30.957H712.916z"/>
</g>
</svg>
