<?xml version="1.0" encoding="utf-8"?>
<!-- Generator: Adobe Illustrator 14.0.0, SVG Export Plug-In . SVG Version: 6.00 Build 43363)  -->
<!DOCTYPE svg PUBLIC "-//W3C//DTD SVG 1.1//EN" "http://www.w3.org/Graphics/SVG/1.1/DTD/svg11.dtd">
<svg version="1.1" id="Calque_1" xmlns="http://www.w3.org/2000/svg" xmlns:xlink="http://www.w3.org/1999/xlink" x="0px" y="0px"
	 width="758.963px" height="1013.949px" viewBox="0 0 758.963 1013.949" enable-background="new 0 0 758.963 1013.949"
	 xml:space="preserve">
<title>Plan de travail 1</title>
<g>
	<g>
		<path fill="#78216B" d="M24.256,127.207c58.646-15.314,117.306-30.533,175.906-46.034c8.523-2.26,12.614-1.936,13.797,8.945
			c1.703,15.832,5.889,31.436,9.616,46.973c3.361,14.17,10.194,18.029,24.564,14.533c17.425-4.262,34.869-8.527,52.183-13.239
			c17.548-4.78,20.336-9.775,15.816-27.159c-4.238-16.432-8.107-32.994-13.493-49.03c-2.212-6.583,0.035-7.337,4.892-8.585
			c56.37-14.561,112.688-29.149,168.982-43.887c4.726-1.24,8.267-1.367,11.038,3.568c14.059,25.33,28.32,50.563,42.849,76.435
			c-34.354,1.653-64.896,12.962-95.944,21.601c-15.264,4.25-18.873,14.806-12.998,29.466c6.324,15.738,12.509,31.559,19.446,47.041
			c5.446,12.163,1.934,19.841-10.345,23.432c-14.409,4.213-28.962,8.046-43.607,11.419c-12.163,2.838-20.647-1.321-24.438-14.15
			c-4.533-15.333-9.753-30.449-14.771-45.664c-5.925-17.957-15.854-24.688-33.947-20.552c-24.565,5.591-48.994,12.032-73.133,19.21
			c-18.104,5.396-23.165,15.695-19.389,34.506c3.053,15.204,6.155,30.421,9.06,45.646c2.928,15.382-0.561,21.375-15.792,25.861
			c-13.479,3.959-27.056,7.728-40.771,10.72c-14.507,3.133-19.739-0.817-21.666-15.241c-2.155-16.345-3.903-32.729-6.008-49.102
			c-2.352-18.438-10.868-25.321-28.729-20.504c-29.813,8.083-61.084,11.546-88.774,26.77c-1.135,0.631-2.875,0.195-4.313,0.259
			v-93.23h-0.029v-0.004h-0.003V127.207z"/>
		<path fill="#78216B" d="M452.388,527.67c10.573-18.822,7.401-36.502,1.617-54.521c-10.834-33.73-21.173-67.594-31.492-101.41
			c-4.89-16.018-0.718-23.651,15.564-28.04c20.14-5.43,40.494-10.016,60.645-15.373c29.152-7.791,37.583-25.313,25.479-52.287
			c-8.722-19.476-17.728-38.824-26.429-58.324c-6.351-14.252-3.711-19.963,11.559-24.499c11.161-3.292,22.475-6.024,33.734-8.962
			c11.207-2.91,22.792-4.885,30.892-16.73c20.223,35.373,39.459,68.957,58.65,102.618c32.692,57.307,65.293,114.623,98.102,171.901
			c3.922,6.826,6.319,11.26-4.474,14.108c-89.573,23.59-179.033,47.608-268.52,71.519
			C456.843,527.926,455.876,527.67,452.388,527.67"/>
		<path fill="#78216B" d="M312.587,568.797c-58.124,15.391-112.897,29.975-167.687,44.483
			c-34.21,9.023-68.527,17.615-102.582,27.179c-10.229,2.934-12.349,0.127-12.386-9.617c-0.604-101.836-1.466-203.64-2.538-305.5
			c-0.082-8.766,0.867-12.684,11.668-11.964c15.605,1.032,30.187-6.341,45.229-9.81c18.624-4.299,23.377-1.229,25.125,18.065
			c1.935,21.249,3.642,42.496,5.186,63.745c1.816,24.822,18.401,37.646,42.818,31.651c24.468-6.011,48.631-13.248,72.966-19.856
			c21.729-5.947,27.85-2.206,31.522,20.229c5.29,32.52,10.72,65.043,14.948,97.771C279.784,537.696,287.966,556.161,312.587,568.797
			"/>
		<path fill="#78216B" d="M353.92,243.495c12.264,19.021,16.867,40.945,21.357,62.479c2.271,10.813-6.595,18.946-17.306,21.943
			c-22.31,6.28-44.649,12.585-67.286,17.486c-17.961,3.889-27.087-2.878-30.646-21.303c-3.487-17.888-10.374-35.313-8.221-54.046
			c-1.766-10.51,3.664-16.713,12.813-19.937c22.919-8.057,46.604-13.371,70.396-18.029
			C344.193,230.269,351.26,233.675,353.92,243.495"/>
		<path fill="#CECECE" d="M353.92,243.495c-8.943-5.24-18.124-5.376-28.036-2.58c-16.344,4.622-32.87,8.591-49.374,12.6
			c-10.32,2.521-18.979,7.255-24.694,16.521c-16.263-21.097-16.804-46.832-19.827-71.465c-1.318-10.688,8.154-17.609,17.734-20.422
			c21.775-6.425,43.831-11.968,65.936-17.181c9.171-2.179,19.5,0.631,22.669,9.026C347.242,193.535,361.08,216.427,353.92,243.495"
			/>
	</g>
	<g>
		<polygon fill="#69B332" points="504.117,735.334 527.334,721.933 496.075,667.779 465.111,667.779 		"/>
		<polygon fill="#00B2DB" points="544.166,721.933 567.389,735.334 606.405,667.779 575.447,667.779 		"/>
		<path fill="#0B682F" d="M521.997,712.692c-5.944-10.201-15.923-15.463-22.313-11.762c-6.371,3.7-6.771,14.945-0.9,25.163l0,0
			l23.997,41.569l23.216-13.405L521.997,712.692L521.997,712.692z"/>
		<path fill="#065879" d="M572.723,726.093c5.867-10.241,5.438-21.509-0.966-25.203c-6.395-3.667-16.336,1.604-22.248,11.795l0,0
			l-23.999,41.579l23.217,13.396L572.723,726.093L572.723,726.093z"/>
		<path fill="#78216B" d="M161.356,737.865v79.016c-10.396,5.104-20.143,8.82-29.219,11.131c-9.087,2.313-18.987,3.474-29.721,3.474
			c-17.997,0-32.691-3.561-44.083-10.655c-11.394-7.077-19.729-16.788-25.016-29.097c-5.278-12.302-7.919-26.7-7.919-43.217
			c0-19.315,3.502-35.244,10.525-47.793c7.008-12.552,16.382-21.71,28.104-27.494c11.722-5.777,24.843-8.665,39.375-8.665
			c20.307,0,38.301,4.955,53.985,14.855l-11.915,20.804c-12.412-7.917-25.816-11.875-40.214-11.875
			c-17.381,0-30.161,5.197-38.356,15.596c-8.192,10.401-12.285,24.853-12.285,43.333c0,19.649,3.851,34.548,11.552,44.706
			c7.698,10.151,20.163,15.235,37.392,15.235c10.101,0,19.955-1.737,29.561-5.204v-40.876H94.985l3.224-23.271L161.356,737.865
			L161.356,737.865z"/>
		<path fill="#78216B" d="M316.618,826.511v1.75H284.67l-43.326-60.688h-19.309v60.688h-28.232V667.779h52.993
			c13.212,0,24.307,2.063,33.304,6.188c9.021,4.127,15.756,9.818,20.31,17.089c4.541,7.268,6.808,15.682,6.808,25.257
			c0,11.388-3.097,21.336-9.288,29.837c-6.188,8.509-15.242,14.489-27.117,17.964L316.618,826.511z M222.027,745.286h21.29
			c11.234,0,19.816-2.351,25.75-7.055c5.955-4.71,8.911-11.682,8.911-20.927c0-8.584-2.67-15.111-8.038-19.565
			c-5.371-4.448-13.175-6.681-23.414-6.681H222.02L222.027,745.286L222.027,745.286z"/>
		<polygon fill="#78216B" points="368.135,804.721 444.658,804.721 444.658,828.261 339.907,828.261 339.907,667.779 
			443.408,667.779 443.408,691.062 368.135,691.062 368.135,735.131 433.51,735.131 430.297,757.916 368.135,757.916 		"/>
		<path fill="#78216B" d="M639.852,820.861c-11.198-6.855-19.476-16.477-24.74-28.858c-5.291-12.382-7.93-26.904-7.93-43.593
			c0-19.809,3.413-35.982,10.284-48.53c6.844-12.543,15.872-21.623,27.107-27.241c11.228-5.604,23.687-8.417,37.402-8.417
			c10.064,0,19.346,1.247,27.854,3.72c8.491,2.475,16.802,6.103,24.887,10.896l-11.458,21.051
			c-12.919-7.763-26.287-11.645-40.066-11.645c-16.082,0-27.923,5.164-35.472,15.481c-7.555,10.318-11.318,24.721-11.318,43.206
			c0,18.989,4.154,33.725,12.446,44.214c8.298,10.483,20.246,15.725,35.854,15.725c7.969,0,15.006-1.039,21.144-3.094
			c6.136-2.073,12.448-4.987,18.923-8.791l11.194,20.3c-8.907,5.284-17.542,9.264-25.894,11.896
			c-8.324,2.636-17.435,3.964-27.367,3.964C665.366,831.142,651.088,827.701,639.852,820.861"/>
		<path fill="#A71924" d="M550.094,757.851c0-11.762-6.494-21.293-14.512-21.293c-8.011,0-14.506,9.531-14.506,21.293l0,0v58.035
			h29.018V757.851L550.094,757.851z"/>
		<path fill="#E95D0C" d="M550.094,802.261c0-11.765-6.494-21.296-14.512-21.296c-8.011,0-14.506,9.531-14.506,21.296v26h29.018
			V802.261z"/>
	</g>
	<g>
		<polygon fill="#78216B" points="30.797,914.73 53.44,914.73 53.44,920.425 24.256,920.425 24.256,874.279 30.797,874.279 		"/>
		<path fill="#78216B" d="M81.389,890.889c1.825,1.631,2.747,4.26,2.747,7.838v21.698h-5.558l-0.359-2.729
			c-3.273,2.372-7.049,3.576-11.317,3.576c-1.801,0-3.419-0.341-4.84-1.034c-1.415-0.691-2.521-1.679-3.308-2.957
			c-0.779-1.205-1.171-2.678-1.171-4.281c0-2.604,0.922-4.781,2.771-6.534c1.844-1.729,4.313-2.981,7.408-3.797
			c3.079-0.791,6.504-1.241,10.249-1.363v-1.533c0-2.165-0.423-3.698-1.277-4.673c-0.855-0.961-2.315-1.448-4.342-1.448
			c-3.471,0-7.064,1.218-10.83,3.7l-2.705-4.271c4.563-3.14,9.327-4.722,14.313-4.722C76.825,888.367,79.557,889.223,81.389,890.889
			 M65.235,915.143c0.729,0.645,1.825,0.949,3.303,0.949c3.228,0,6.38-0.961,9.477-2.871v-7.425
			c-4.137,0.22-7.484,0.853-10.036,1.935c-2.565,1.107-3.84,2.666-3.84,4.649C64.131,913.609,64.506,914.531,65.235,915.143"/>
		<path fill="#78216B" d="M117.233,890.404c1.853,1.362,3.24,3.228,4.125,5.536c0.91,2.373,1.357,5.039,1.357,7.971
			c0,4.125-0.883,7.484-2.665,10.055c-1.789,2.613-4.025,4.438-6.729,5.607c-2.696,1.106-5.506,1.703-8.409,1.703
			c-3.179,0-6.903-0.693-11.187-2.044v-47.825l6.131-0.705v20.456c3.376-1.858,6.86-2.787,10.471-2.787
			C113.095,888.367,115.389,889.037,117.233,890.404 M112.96,913.317c2.139-1.91,3.21-5.073,3.21-9.552
			c0-3.238-0.612-5.72-1.856-7.484c-1.224-1.773-3.122-2.629-5.692-2.629c-2.803,0-5.729,0.694-8.759,2.058v19.923
			c1.803,0.398,3.425,0.57,4.846,0.57C108.077,916.199,110.83,915.252,112.96,913.317"/>
		<path fill="#78216B" d="M134.326,919.098c-2.227-1.449-3.896-3.42-4.98-5.914c-1.089-2.471-1.637-5.294-1.637-8.434
			c0-3.771,0.715-6.899,2.137-9.349c1.426-2.442,3.352-4.247,5.765-5.343c2.431-1.119,5.187-1.679,8.269-1.679
			c3.321,0,6.1,0.729,8.327,2.178c2.229,1.473,3.879,3.432,4.978,5.878c1.095,2.458,1.652,5.27,1.652,8.409
			c0,3.833-0.718,6.996-2.132,9.419c-1.43,2.443-3.359,4.247-5.781,5.33c-2.413,1.132-5.166,1.703-8.245,1.703
			C139.333,921.285,136.561,920.558,134.326,919.098 M152.412,904.75c0-3.456-0.749-6.206-2.236-8.287
			c-1.51-2.069-3.751-3.093-6.736-3.093c-3.319,0-5.713,1.021-7.15,3.021c-1.451,2.008-2.169,4.806-2.169,8.359
			c0,3.517,0.755,6.325,2.273,8.396c1.512,2.08,3.788,3.115,6.833,3.115C149.354,916.263,152.412,912.442,152.412,904.75"/>
		<path fill="#78216B" d="M183.744,888.541c0.664,0.097,1.378,0.22,2.139,0.426l-1.141,6.353c-1.612-0.606-3.093-0.89-4.426-0.89
			c-1.515,0-2.9,0.329-4.187,1.021c-1.29,0.657-2.525,1.898-3.708,3.735v21.236h-6.116v-31.265l6.118-0.634v4.491
			c1.184-1.533,2.568-2.689,4.131-3.479c1.557-0.776,3.229-1.169,4.98-1.169C182.345,888.367,183.065,888.419,183.744,888.541"/>
		<path fill="#78216B" d="M211.827,890.889c1.816,1.631,2.732,4.26,2.732,7.838v21.698h-5.545l-0.368-2.729
			c-3.271,2.372-7.04,3.576-11.313,3.576c-1.801,0-3.413-0.341-4.84-1.034c-1.422-0.691-2.525-1.679-3.313-2.957
			c-0.784-1.205-1.171-2.678-1.171-4.281c0-2.604,0.922-4.781,2.781-6.534c1.85-1.729,4.314-2.981,7.399-3.797
			c3.085-0.791,6.498-1.241,10.25-1.363v-1.533c0-2.165-0.423-3.698-1.281-4.673c-0.855-0.961-2.303-1.448-4.335-1.448
			c-3.474,0-7.067,1.218-10.824,3.7l-2.717-4.271c4.563-3.14,9.333-4.722,14.317-4.722
			C207.261,888.367,210.013,889.223,211.827,890.889 M195.664,915.143c0.733,0.645,1.831,0.949,3.31,0.949
			c3.234,0,6.395-0.961,9.471-2.871v-7.425c-4.125,0.22-7.478,0.853-10.027,1.935c-2.574,1.107-3.854,2.666-3.854,4.649
			C194.555,913.609,194.936,914.531,195.664,915.143"/>
		<path fill="#78216B" d="M242.755,919.291c-2.467,1.303-5.083,1.981-7.831,1.981c-2.941,0-5.266-0.864-6.973-2.531
			c-1.716-1.688-2.574-4.211-2.574-7.594v-17.073h-6.255v-4.831h6.255v-7.059l6.13-1.009v8.064h10.533l-0.646,4.831h-9.896v16.076
			c0,3.979,1.466,6.012,4.418,6.012c0.842,0,1.675-0.135,2.479-0.292c0.806-0.192,1.688-0.533,2.638-0.926L242.755,919.291z"/>
		<path fill="#78216B" d="M252.219,919.098c-2.217-1.449-3.888-3.42-4.971-5.914c-1.101-2.471-1.633-5.294-1.633-8.434
			c0-3.771,0.702-6.899,2.133-9.349c1.42-2.442,3.343-4.247,5.755-5.343c2.431-1.119,5.184-1.679,8.27-1.679
			c3.325,0,6.106,0.729,8.329,2.178c2.227,1.473,3.896,3.432,4.979,5.878c1.092,2.458,1.639,5.27,1.639,8.409
			c0,3.833-0.706,6.996-2.126,9.419c-1.427,2.443-3.355,4.247-5.78,5.33c-2.413,1.132-5.172,1.703-8.251,1.703
			C257.243,921.285,254.462,920.558,252.219,919.098 M270.321,904.75c0-3.456-0.749-6.206-2.242-8.287
			c-1.5-2.069-3.745-3.093-6.73-3.093c-3.318,0-5.713,1.021-7.152,3.021c-1.442,2.008-2.167,4.806-2.167,8.359
			c0,3.517,0.751,6.325,2.279,8.396c1.509,2.08,3.782,3.115,6.836,3.115C267.26,916.263,270.321,912.442,270.321,904.75"/>
		<path fill="#78216B" d="M285.054,882.282c-0.66-0.398-1.196-0.912-1.6-1.594c-0.398-0.644-0.603-1.387-0.603-2.153
			c0-0.791,0.201-1.51,0.603-2.201c0.401-0.646,0.938-1.19,1.6-1.617c0.667-0.392,1.378-0.608,2.146-0.608
			c0.797,0,1.529,0.207,2.203,0.608c0.663,0.398,1.196,0.945,1.604,1.617c0.398,0.683,0.605,1.41,0.605,2.201
			c0,0.77-0.201,1.497-0.605,2.153c-0.405,0.682-0.938,1.192-1.604,1.594c-0.667,0.43-1.399,0.609-2.203,0.609
			C286.432,882.895,285.727,882.712,285.054,882.282 M284.207,920.425v-31.182l6.121-0.705v31.887H284.207L284.207,920.425z"/>
		<path fill="#78216B" d="M317.741,888.541c0.66,0.097,1.375,0.22,2.136,0.426l-1.153,6.353c-1.604-0.606-3.075-0.89-4.411-0.89
			c-1.521,0-2.914,0.329-4.201,1.021c-1.284,0.657-2.513,1.898-3.7,3.735v21.236h-6.121v-31.265l6.121-0.634v4.491
			c1.184-1.533,2.568-2.689,4.128-3.479c1.568-0.776,3.24-1.169,4.979-1.169C316.339,888.367,317.075,888.419,317.741,888.541"/>
		<path fill="#78216B" d="M349.917,905.895h-21.716c0.04,3.565,0.91,6.146,2.598,7.751c1.689,1.606,3.864,2.458,6.514,2.458
			c1.898,0,3.553-0.255,4.946-0.755c1.409-0.45,2.952-1.18,4.667-2.201l2.355,4.355c-3.901,2.508-7.979,3.771-12.258,3.771
			c-4.557,0-8.199-1.265-10.916-3.797c-2.747-2.531-4.101-6.596-4.101-12.096c0-3.127,0.565-5.95,1.707-8.53
			c1.147-2.531,2.841-4.587,5.089-6.146c2.255-1.545,5.029-2.337,8.303-2.337c2.744,0,5.102,0.584,7.046,1.691
			c1.948,1.104,3.416,2.642,4.411,4.588c0.996,1.947,1.488,4.188,1.488,6.669L349.917,905.895z M331.298,895.365
			c-1.408,1.461-2.312,3.48-2.747,6.024h15.528v-0.271c0-2.642-0.606-4.624-1.82-5.964c-1.21-1.35-2.929-2.008-5.16-2.008
			C334.632,893.141,332.697,893.859,331.298,895.365"/>
		<path fill="#78216B" d="M401.098,870.713v49.712h-5.544l-0.281-2.268c-1.714,0.985-3.453,1.74-5.198,2.288
			c-1.761,0.563-3.396,0.84-4.91,0.84c-2.755,0-5.109-0.646-7.053-1.896c-1.95-1.229-3.438-3.079-4.448-5.428
			c-1.023-2.336-1.532-5.102-1.532-8.275c0-3.613,0.696-6.717,2.093-9.309c1.401-2.631,3.321-4.612,5.736-5.978
			c2.414-1.362,5.166-2.033,8.257-2.033c2.036,0,4.295,0.342,6.765,0.938v-17.89L401.098,870.713z M380.823,913.426
			c1.42,1.717,3.431,2.565,6.047,2.565c2.742,0,5.459-0.776,8.115-2.349V894.32c-2.146-0.767-4.231-1.12-6.271-1.12
			c-1.95,0-3.679,0.45-5.154,1.327c-1.509,0.9-2.688,2.252-3.567,4.088c-0.878,1.854-1.314,4.188-1.314,6.913
			C378.676,909.107,379.38,911.744,380.823,913.426"/>
		<path fill="#78216B" d="M436.497,905.895h-21.724c0.038,3.565,0.909,6.146,2.594,7.751c1.688,1.606,3.87,2.458,6.51,2.458
			c1.908,0,3.553-0.255,4.95-0.755c1.397-0.45,2.956-1.18,4.672-2.201l2.337,4.355c-3.895,2.508-7.969,3.771-12.252,3.771
			c-4.548,0-8.191-1.265-10.914-3.797c-2.729-2.531-4.098-6.596-4.098-12.096c0-3.127,0.567-5.95,1.705-8.53
			c1.15-2.531,2.83-4.587,5.098-6.146c2.248-1.545,5.017-2.337,8.286-2.337c2.76,0,5.103,0.584,7.046,1.691
			c1.95,1.104,3.414,2.642,4.417,4.588c0.997,1.947,1.491,4.188,1.491,6.669L436.497,905.895z M417.866,895.365
			c-1.402,1.461-2.317,3.48-2.74,6.024h15.527v-0.271c0-2.642-0.603-4.624-1.819-5.964c-1.21-1.35-2.93-2.008-5.158-2.008
			C421.212,893.141,419.276,893.859,417.866,895.365"/>
		<path fill="#78216B" d="M478.637,888.541c0.655,0.097,1.373,0.22,2.144,0.426l-1.147,6.353c-1.612-0.606-3.093-0.89-4.412-0.89
			c-1.521,0-2.92,0.329-4.204,1.021c-1.291,0.657-2.513,1.898-3.693,3.735v21.236h-6.118v-31.265l6.118-0.634v4.491
			c1.184-1.533,2.561-2.689,4.125-3.479c1.576-0.776,3.229-1.169,4.98-1.169C477.236,888.367,477.97,888.419,478.637,888.541"/>
		<path fill="#78216B" d="M510.807,905.895h-21.712c0.047,3.565,0.914,6.146,2.604,7.751c1.682,1.606,3.852,2.458,6.512,2.458
			c1.906,0,3.543-0.255,4.945-0.755c1.396-0.45,2.955-1.18,4.66-2.201l2.358,4.355c-3.896,2.508-7.979,3.771-12.254,3.771
			c-4.555,0-8.192-1.265-10.909-3.797c-2.742-2.531-4.102-6.596-4.102-12.096c0-3.127,0.563-5.95,1.708-8.53
			c1.141-2.531,2.829-4.587,5.097-6.146c2.249-1.545,5.017-2.337,8.288-2.337c2.74,0,5.104,0.584,7.041,1.691
			c1.938,1.104,3.419,2.642,4.411,4.588c0.995,1.947,1.492,4.188,1.492,6.669L510.807,905.895z M492.204,895.365
			c-1.409,1.461-2.317,3.48-2.741,6.024h15.521v-0.271c0-2.642-0.608-4.624-1.82-5.964c-1.212-1.35-2.934-2.008-5.156-2.008
			C495.525,893.141,493.6,893.859,492.204,895.365"/>
		<path fill="#78216B" d="M519.927,917.536c-2.659-2.47-3.982-6.461-3.982-11.946c0-3.919,0.754-7.167,2.267-9.771
			c1.526-2.556,3.484-4.491,5.874-5.646c2.396-1.167,4.951-1.804,7.658-1.804c3.13,0,6.398,0.913,9.827,2.729l-2.278,4.685
			c-1.679-0.79-3.104-1.36-4.309-1.688c-1.208-0.342-2.461-0.524-3.741-0.524c-2.808,0-4.987,1.083-6.561,3.189
			c-1.563,2.116-2.343,5.098-2.343,8.855c0,3.736,0.791,6.377,2.373,7.982c1.591,1.604,3.751,2.422,6.45,2.422
			c1.604,0,3.091-0.243,4.375-0.767c1.303-0.45,2.746-1.184,4.313-2.096l2.41,4.355c-1.749,1.145-3.566,2.046-5.438,2.737
			c-1.877,0.683-3.95,1.033-6.23,1.033C526.135,921.285,522.584,920.032,519.927,917.536"/>
		<path fill="#78216B" d="M572.599,890.656c1.703,1.521,2.559,3.99,2.559,7.397v22.368h-6.104v-19.86
			c0-1.753-0.178-3.128-0.549-4.103c-0.335-0.976-0.942-1.69-1.759-2.096c-0.845-0.413-1.983-0.654-3.388-0.654
			c-1.434,0-2.953,0.22-4.535,0.606c-1.595,0.364-3.064,0.888-4.441,1.545v24.562h-6.132v-49.008l6.132-0.705v20.735
			c3.883-2.059,7.646-3.08,11.268-3.08C568.573,888.367,570.904,889.113,572.599,890.656"/>
		<path fill="#78216B" d="M610.177,905.895h-21.687c0.043,3.565,0.914,6.146,2.593,7.751c1.691,1.606,3.857,2.458,6.51,2.458
			c1.924,0,3.52-0.255,4.941-0.755c1.424-0.45,2.979-1.18,4.678-2.201l2.344,4.355c-3.894,2.508-7.958,3.771-12.255,3.771
			c-4.54,0-8.201-1.265-10.899-3.797c-2.754-2.531-4.107-6.596-4.107-12.096c0-3.127,0.57-5.95,1.684-8.53
			c1.178-2.531,2.852-4.587,5.091-6.146c2.271-1.545,5.063-2.337,8.312-2.337c2.75,0,5.111,0.584,7.035,1.691
			c1.971,1.104,3.431,2.642,4.422,4.588c0.992,1.935,1.497,4.188,1.497,6.669L610.177,905.895z M591.583,895.365
			c-1.424,1.461-2.349,3.48-2.75,6.024h15.51v-0.271c0-2.642-0.592-4.624-1.816-5.964c-1.206-1.35-2.91-2.008-5.148-2.008
			C594.907,893.141,592.976,893.859,591.583,895.365"/>
		<path fill="#78216B" d="M635.244,888.541c0.659,0.097,1.377,0.22,2.137,0.426l-1.146,6.353c-1.582-0.606-3.063-0.89-4.407-0.89
			c-1.509,0-2.921,0.329-4.198,1.021c-1.274,0.657-2.5,1.898-3.712,3.735v21.236h-6.104v-31.265l6.104-0.634v4.491
			c1.2-1.533,2.563-2.689,4.125-3.479c1.582-0.776,3.25-1.169,4.979-1.169C633.845,888.367,634.599,888.419,635.244,888.541"/>
		<path fill="#78216B" d="M643.509,917.536c-2.665-2.47-4.005-6.461-4.005-11.946c0-3.919,0.768-7.167,2.275-9.771
			c1.535-2.556,3.506-4.491,5.891-5.646c2.38-1.167,4.936-1.804,7.654-1.804c3.148,0,6.413,0.913,9.817,2.729l-2.25,4.685
			c-1.695-0.79-3.14-1.36-4.334-1.688c-1.202-0.342-2.469-0.524-3.743-0.524c-2.787,0-4.974,1.083-6.545,3.189
			c-1.589,2.116-2.364,5.098-2.364,8.855c0,3.736,0.775,6.377,2.384,7.982c1.596,1.604,3.762,2.422,6.457,2.422
			c1.637,0,3.061-0.243,4.375-0.767c1.303-0.45,2.736-1.184,4.309-2.096l2.428,4.355c-1.774,1.145-3.591,2.046-5.46,2.737
			c-1.872,0.683-3.978,1.033-6.195,1.033C649.714,921.285,646.152,920.032,643.509,917.536"/>
		<path fill="#78216B" d="M696.202,890.656c1.684,1.521,2.553,3.99,2.553,7.397v22.368h-6.132v-19.86
			c0-1.753-0.186-3.128-0.523-4.103c-0.362-0.976-0.947-1.69-1.802-2.096c-0.82-0.413-1.945-0.654-3.376-0.654
			c-1.418,0-2.915,0.22-4.509,0.606c-1.607,0.364-3.078,0.888-4.468,1.545v24.562h-6.12v-49.008l6.12-0.705v20.735
			c3.896-2.059,7.654-3.08,11.244-3.08C692.161,888.367,694.467,889.113,696.202,890.656"/>
		<path fill="#78216B" d="M733.781,905.895h-21.717c0.05,3.565,0.92,6.146,2.593,7.751c1.687,1.606,3.861,2.458,6.532,2.458
			c1.875,0,3.523-0.255,4.954-0.755c1.396-0.45,2.962-1.18,4.644-2.201l2.367,4.355c-3.911,2.508-7.979,3.771-12.264,3.771
			c-4.55,0-8.201-1.265-10.938-3.797c-2.729-2.531-4.063-6.596-4.063-12.096c0-3.127,0.55-5.95,1.688-8.53
			c1.148-2.531,2.837-4.587,5.104-6.146c2.238-1.545,5.011-2.337,8.271-2.337c2.762,0,5.085,0.584,7.08,1.691
			c1.924,1.104,3.37,2.642,4.395,4.588c1.003,1.947,1.503,4.188,1.503,6.669L733.781,905.895z M715.151,895.365
			c-1.398,1.461-2.296,3.48-2.744,6.024h15.53v-0.271c0-2.642-0.605-4.624-1.808-5.964c-1.231-1.35-2.926-2.008-5.182-2.008
			C718.494,893.141,716.547,893.859,715.151,895.365"/>
	</g>
	<g>
		<path fill="#78216B" d="M49.986,968.341h-20.97c0.041,3.443,0.882,5.938,2.511,7.491c1.617,1.554,3.71,2.377,6.287,2.377
			c1.858,0,3.422-0.247,4.781-0.729c1.358-0.437,2.854-1.142,4.51-2.13l2.271,4.211c-3.757,2.423-7.691,3.646-11.843,3.646
			c-4.399,0-7.904-1.226-10.538-3.672c-2.638-2.443-3.967-6.374-3.967-11.688c0-3.022,0.529-5.751,1.638-8.244
			c1.129-2.446,2.764-4.435,4.952-5.939c2.149-1.49,4.819-2.258,7.983-2.258c2.646,0,4.952,0.564,6.821,1.634
			c1.888,1.07,3.305,2.556,4.258,4.438c0.958,1.882,1.446,4.046,1.446,6.443L49.986,968.341z M32.004,958.168
			c-1.364,1.408-2.271,3.36-2.658,5.818h15.014v-0.259c0-2.552-0.594-4.47-1.773-5.763c-1.159-1.309-2.829-1.94-4.987-1.94
			C35.215,956.016,33.355,956.709,32.004,958.168"/>
		<path fill="#78216B" d="M83.495,960.967v21.418h-5.896v-19.194c0-1.694-0.191-3.021-0.541-3.964
			c-0.356-0.941-0.929-1.636-1.717-2.023c-0.8-0.397-1.895-0.635-3.271-0.635c-1.383,0-2.821,0.212-4.409,0.603
			c-1.556,0.388-3.022,0.902-4.398,1.525v23.688h-5.896v-30.133l5.896-0.686v2.858c3.869-2.015,7.515-3.022,11.021-3.022
			C80.414,951.406,83.495,954.592,83.495,960.967"/>
		<path fill="#78216B" d="M111.851,982.219c-2.164-0.684-4.164-1.693-5.993-3.069l2.605-4.175c3.375,2.352,6.869,3.563,10.468,3.563
			c2.07,0,3.658-0.353,4.763-1.082c1.082-0.717,1.638-1.738,1.638-3.129c0-1.081-0.488-2.046-1.459-2.854
			c-0.982-0.776-2.729-1.52-5.188-2.153l-2.153-0.552c-3.19-0.859-5.551-1.94-7.065-3.271c-1.47-1.361-2.194-3.163-2.194-5.407
			c0-1.705,0.465-3.199,1.406-4.52c0.976-1.306,2.305-2.316,4.046-3.046c1.717-0.741,3.646-1.117,5.811-1.117
			c2.081,0,4.06,0.246,5.93,0.717c1.917,0.494,3.893,1.309,5.845,2.438l-2.405,4.211c-1.888-1-3.51-1.717-4.887-2.117
			c-1.388-0.377-2.87-0.541-4.387-0.541c-1.669,0-2.94,0.282-3.905,0.953c-0.964,0.67-1.398,1.54-1.398,2.646
			c0,0.95,0.376,1.718,1.131,2.233c0.738,0.553,2.067,1.062,3.949,1.575l2.13,0.541c2.616,0.683,4.718,1.447,6.314,2.341
			c1.553,0.858,2.706,1.917,3.47,3.129c0.729,1.234,1.111,2.658,1.111,4.398c0,1.812-0.453,3.41-1.417,4.811
			c-0.929,1.423-2.323,2.521-4.152,3.271c-1.835,0.8-4.04,1.188-6.668,1.188C116.45,983.22,113.992,982.865,111.851,982.219"/>
		<path fill="#78216B" d="M139.731,979.597c-2.587-2.388-3.855-6.245-3.855-11.55c0-3.787,0.732-6.93,2.182-9.444
			c1.493-2.47,3.375-4.34,5.668-5.457c2.354-1.13,4.775-1.74,7.398-1.74c3.035,0,6.196,0.881,9.503,2.634l-2.211,4.528
			c-1.623-0.765-2.999-1.314-4.152-1.635c-1.175-0.329-2.375-0.506-3.634-0.506c-2.699,0-4.775,1.047-6.316,3.082
			c-1.505,2.046-2.27,4.927-2.27,8.563c0,3.609,0.773,6.162,2.294,7.715c1.552,1.555,3.634,2.344,6.23,2.344
			c1.587,0,2.987-0.236,4.246-0.741c1.247-0.438,2.646-1.144,4.143-2.023l2.346,4.211c-1.664,1.105-3.44,1.979-5.263,2.646
			c-1.808,0.659-3.808,1.001-6.013,1.001C145.742,983.22,142.29,982.008,139.731,979.597"/>
		<path fill="#78216B" d="M167.929,945.524c-0.665-0.388-1.153-0.881-1.541-1.54c-0.394-0.624-0.6-1.341-0.6-2.082
			c0-0.765,0.191-1.459,0.6-2.129c0.376-0.623,0.876-1.152,1.541-1.563c0.629-0.378,1.341-0.591,2.076-0.591
			c0.773,0,1.464,0.2,2.134,0.591c0.624,0.389,1.147,0.918,1.541,1.563c0.376,0.658,0.588,1.364,0.588,2.129
			c0,0.741-0.2,1.446-0.588,2.082c-0.382,0.659-0.917,1.152-1.541,1.54c-0.659,0.412-1.364,0.589-2.134,0.589
			C169.27,946.113,168.57,945.936,167.929,945.524 M167.106,982.385v-30.133l5.904-0.686v30.815L167.106,982.385L167.106,982.385z"
			/>
		<path fill="#78216B" d="M207.219,968.341H186.23c0.035,3.443,0.896,5.938,2.529,7.491c1.617,1.554,3.693,2.377,6.292,2.377
			c1.829,0,3.434-0.247,4.751-0.729c1.376-0.437,2.888-1.142,4.528-2.13l2.27,4.211c-3.751,2.423-7.697,3.646-11.832,3.646
			c-4.411,0-7.916-1.226-10.562-3.672c-2.637-2.443-3.979-6.374-3.979-11.688c0-3.022,0.588-5.751,1.67-8.244
			c1.097-2.446,2.729-4.435,4.916-5.939c2.188-1.49,4.854-2.258,8.021-2.258c2.646,0,4.917,0.564,6.81,1.634
			c1.882,1.07,3.299,2.556,4.258,4.438c0.967,1.882,1.458,4.046,1.458,6.443L207.219,968.341z M189.241,958.168
			c-1.37,1.408-2.246,3.36-2.664,5.818h15.001v-0.259c0-2.552-0.591-4.47-1.776-5.763c-1.134-1.309-2.823-1.94-4.957-1.94
			C192.44,956.016,190.582,956.709,189.241,958.168"/>
		<path fill="#78216B" d="M240.72,960.967v21.418h-5.898v-19.194c0-1.694-0.17-3.021-0.512-3.964
			c-0.365-0.941-0.953-1.636-1.741-2.023c-0.8-0.397-1.894-0.635-3.27-0.635c-1.365,0-2.834,0.212-4.387,0.603
			c-1.577,0.388-3.046,0.902-4.396,1.525v23.688h-5.945v-30.133l5.945-0.686v2.858c3.817-2.015,7.519-3.022,10.986-3.022
			C237.651,951.406,240.72,954.592,240.72,960.967"/>
		<path fill="#78216B" d="M251.459,979.597c-2.555-2.388-3.858-6.245-3.858-11.55c0-3.787,0.735-6.93,2.206-9.444
			c1.464-2.47,3.37-4.34,5.688-5.457c2.293-1.13,4.764-1.74,7.392-1.74c3.022,0,6.192,0.881,9.492,2.634l-2.199,4.528
			c-1.594-0.765-3.011-1.314-4.17-1.635c-1.152-0.329-2.346-0.506-3.604-0.506c-2.697,0-4.811,1.047-6.325,3.082
			c-1.514,2.046-2.261,4.927-2.261,8.563c0,3.609,0.747,6.162,2.303,7.715c1.511,1.555,3.608,2.344,6.236,2.344
			c1.556,0,2.958-0.236,4.205-0.741c1.288-0.438,2.643-1.144,4.188-2.023l2.314,4.211c-1.688,1.105-3.434,1.979-5.257,2.646
			c-1.823,0.659-3.834,1.001-6.034,1.001C257.48,983.22,254.035,982.008,251.459,979.597"/>
		<path fill="#78216B" d="M303.432,968.341h-21.006c0.041,3.443,0.882,5.938,2.493,7.491c1.659,1.554,3.764,2.377,6.316,2.377
			c1.835,0,3.423-0.247,4.772-0.729c1.376-0.437,2.858-1.142,4.52-2.13l2.27,4.211c-3.758,2.423-7.68,3.646-11.837,3.646
			c-4.395,0-7.936-1.226-10.559-3.672c-2.655-2.443-3.975-6.374-3.975-11.688c0-3.022,0.564-5.751,1.67-8.244
			c1.112-2.446,2.717-4.435,4.896-5.939c2.188-1.49,4.893-2.258,8.051-2.258c2.641,0,4.922,0.564,6.792,1.634
			c1.882,1.07,3.328,2.556,4.27,4.438c0.967,1.882,1.437,4.046,1.437,6.443L303.432,968.341z M285.414,958.168
			c-1.354,1.408-2.229,3.36-2.637,5.818h14.979v-0.259c0-2.552-0.582-4.47-1.758-5.763c-1.153-1.309-2.847-1.94-4.963-1.94
			C288.661,956.016,286.781,956.709,285.414,958.168"/>
		<path fill="#78216B" d="M313.321,982.219c-2.173-0.684-4.146-1.693-5.993-3.069l2.634-4.175c3.346,2.352,6.84,3.563,10.468,3.563
			c2.07,0,3.643-0.353,4.74-1.082c1.093-0.717,1.623-1.738,1.623-3.129c0-1.081-0.479-2.046-1.458-2.854
			c-0.978-0.776-2.717-1.52-5.188-2.153l-2.121-0.552c-3.229-0.859-5.582-1.94-7.089-3.271c-1.479-1.361-2.211-3.163-2.211-5.407
			c0-1.705,0.473-3.199,1.425-4.52c0.957-1.306,2.315-2.316,4.021-3.046c1.74-0.741,3.652-1.117,5.822-1.117
			c2.093,0,4.081,0.246,5.938,0.717c1.923,0.494,3.869,1.309,5.834,2.438l-2.397,4.211c-1.883-1-3.522-1.717-4.869-2.117
			c-1.396-0.377-2.87-0.541-4.416-0.541c-1.665,0-2.923,0.282-3.889,0.953c-0.966,0.67-1.416,1.54-1.416,2.646
			c0,0.95,0.382,1.718,1.135,2.233c0.753,0.553,2.082,1.062,3.945,1.575l2.135,0.541c2.635,0.683,4.729,1.447,6.304,2.341
			c1.594,0.858,2.729,1.917,3.47,3.129c0.729,1.234,1.123,2.658,1.123,4.398c0,1.812-0.494,3.41-1.429,4.811
			c-0.941,1.423-2.329,2.521-4.175,3.271c-1.799,0.8-4.035,1.188-6.646,1.188C317.911,983.22,315.476,982.865,313.321,982.219"/>
		<path fill="#78216B" d="M381.866,934.339v48.046h-5.38l-0.283-2.188c-1.646,0.953-3.307,1.686-5.021,2.211
			c-1.682,0.542-3.27,0.813-4.738,0.813c-2.65,0-4.938-0.624-6.799-1.835c-1.896-1.188-3.341-2.979-4.313-5.246
			c-0.979-2.258-1.472-4.928-1.472-7.997c0-3.493,0.666-6.492,2.021-8.997c1.34-2.541,3.188-4.458,5.539-5.775
			c2.33-1.314,5-1.964,7.987-1.964c1.964,0,4.14,0.328,6.551,0.905v-17.289L381.866,934.339z M362.252,975.618
			c1.364,1.659,3.34,2.481,5.846,2.481c2.652,0,5.271-0.752,7.868-2.271v-18.677c-2.082-0.741-4.081-1.082-6.092-1.082
			c-1.877,0-3.541,0.438-4.963,1.282c-1.438,0.869-2.588,2.175-3.44,3.952c-0.865,1.787-1.27,4.046-1.27,6.68
			C360.187,971.447,360.865,973.996,362.252,975.618"/>
		<path fill="#78216B" d="M417.012,951.57v30.815h-5.287l-0.347-2.282c-3.529,2.094-7.093,3.117-10.744,3.117
			c-2.773,0-5.063-0.813-6.822-2.388c-1.794-1.576-2.681-4-2.681-7.178v-21.402l5.951-0.686v20.359c0,1.493,0.158,2.705,0.521,3.587
			c0.392,0.894,0.953,1.588,1.782,1.938c0.841,0.4,1.981,0.604,3.451,0.604c2.2,0,4.938-0.849,8.258-2.564v-23.229L417.012,951.57z"
			/>
		<path fill="#78216B" d="M469.327,960.967v21.418h-5.945v-19.194c0-1.694-0.136-3.021-0.495-3.964
			c-0.355-0.941-0.935-1.636-1.722-2.023c-0.807-0.397-1.906-0.635-3.247-0.635c-1.382,0-2.881,0.212-4.422,0.603
			c-1.588,0.388-3.011,0.902-4.398,1.525v23.688h-5.894v-30.133l5.894-0.686v2.858c3.869-2.015,7.519-3.022,11.018-3.022
			C466.246,951.406,469.327,954.592,469.327,960.967"/>
		<path fill="#78216B" d="M504.155,951.57v30.815h-5.316l-0.347-2.282c-3.535,2.094-7.122,3.117-10.75,3.117
			c-2.793,0-5.063-0.813-6.848-2.388c-1.765-1.576-2.641-4-2.641-7.178v-21.402l5.916-0.686v20.359c0,1.493,0.152,2.705,0.547,3.587
			c0.37,0.894,0.979,1.588,1.793,1.938c0.859,0.4,1.946,0.604,3.438,0.604c2.198,0,4.97-0.849,8.257-2.564v-23.229L504.155,951.57z"
			/>
		<path fill="#78216B" d="M555.199,953.615c1.541,1.474,2.341,3.858,2.341,7.151v21.618h-5.928V963.19
			c0-1.694-0.146-3.023-0.459-3.964c-0.344-0.941-0.823-1.636-1.535-2.023c-0.652-0.397-1.628-0.635-2.889-0.635
			c-1.337,0-2.691,0.212-4.197,0.602c-1.482,0.389-2.834,0.903-4.122,1.526c0.089,0.93,0.146,1.623,0.146,2.07v21.618h-5.928V963.19
			c0-1.694-0.129-3.023-0.446-3.964c-0.306-0.941-0.794-1.636-1.479-2.023c-0.685-0.397-1.635-0.635-2.881-0.635
			c-1.294,0-2.638,0.212-4.04,0.602c-1.424,0.389-2.794,0.883-4.064,1.48v23.734h-5.938V952.25l5.938-0.685v2.858
			c3.506-2.015,6.963-3.022,10.306-3.022c3.395,0,5.764,1.144,7.155,3.387c1.651-0.929,3.521-1.764,5.615-2.408
			c2.088-0.638,4.128-0.952,6.163-0.952C551.539,951.406,553.621,952.119,555.199,953.615"/>
		<path fill="#78216B" d="M591.375,968.354h-20.972c0.054,3.434,0.883,5.928,2.506,7.479c1.629,1.556,3.716,2.379,6.328,2.379
			c1.813,0,3.396-0.247,4.736-0.729c1.386-0.437,2.87-1.165,4.519-2.13l2.281,4.211c-3.76,2.423-7.724,3.646-11.854,3.646
			c-4.387,0-7.903-1.225-10.538-3.691c-2.635-2.423-3.958-6.363-3.958-11.68c0-3.022,0.547-5.752,1.664-8.244
			c1.101-2.446,2.718-4.422,4.929-5.939c2.152-1.479,4.813-2.246,7.977-2.246c2.683,0,4.952,0.554,6.828,1.635
			c1.888,1.069,3.312,2.555,4.263,4.424c0.977,1.882,1.438,4.059,1.438,6.456L591.375,968.354z M573.391,958.168
			c-1.37,1.408-2.224,3.36-2.646,5.818h15.013v-0.259c0-2.552-0.593-4.47-1.781-5.773c-1.142-1.295-2.82-1.93-4.984-1.93
			C576.625,956.016,574.743,956.709,573.391,958.168 M575.626,948.723l-2.246-2.657l10.708-8.75l3.523,4.896L575.626,948.723z"/>
		<path fill="#78216B" d="M615.602,951.57c0.674,0.094,1.317,0.212,2.062,0.412l-1.105,6.139c-1.553-0.587-2.976-0.854-4.244-0.854
			c-1.472,0-2.837,0.313-4.08,0.984c-1.234,0.638-2.405,1.838-3.57,3.611v20.523h-5.936V952.17l5.936-0.612v4.34
			c1.146-1.481,2.471-2.599,3.979-3.363c1.535-0.753,3.131-1.129,4.836-1.129C614.285,951.406,614.962,951.448,615.602,951.57"/>
		<path fill="#78216B" d="M624.329,945.524c-0.629-0.388-1.146-0.881-1.519-1.54c-0.389-0.624-0.609-1.341-0.609-2.082
			c0-0.765,0.212-1.459,0.609-2.129c0.37-0.623,0.89-1.152,1.519-1.563c0.636-0.378,1.365-0.591,2.082-0.591
			c0.771,0,1.487,0.2,2.13,0.591c0.623,0.389,1.163,0.918,1.563,1.563c0.37,0.658,0.57,1.364,0.57,2.129
			c0,0.741-0.2,1.446-0.57,2.082c-0.388,0.659-0.938,1.152-1.563,1.54c-0.636,0.412-1.365,0.589-2.13,0.589
			C625.697,946.113,624.976,945.936,624.329,945.524 M623.533,982.385v-30.133l5.901-0.686v30.815L623.533,982.385L623.533,982.385z
			"/>
		<path fill="#78216B" d="M664.682,953.405v41.753h-5.907v-14.644c-3.233,1.8-6.513,2.693-9.826,2.693
			c-2.634,0-4.896-0.658-6.692-1.92c-1.854-1.278-3.229-3.046-4.176-5.269c-0.929-2.223-1.399-4.752-1.399-7.598
			c0-4.104,0.859-7.41,2.576-9.977c1.717-2.526,3.904-4.353,6.539-5.411c2.6-1.081,5.316-1.622,8.104-1.622
			C656.838,951.406,660.46,952.052,664.682,953.405 M658.76,976.115v-19.253c-1.752-0.364-3.31-0.576-4.675-0.576
			c-3.27,0-5.939,0.979-7.986,2.881c-2.081,1.905-3.104,5.034-3.104,9.397c0,3.011,0.671,5.398,1.929,7.057
			c1.335,1.646,3.188,2.494,5.646,2.494C653.145,978.103,655.864,977.433,658.76,976.115"/>
		<path fill="#78216B" d="M699.838,951.57v30.815h-5.316l-0.314-2.282c-3.561,2.094-7.128,3.117-10.75,3.117
			c-2.793,0-5.063-0.813-6.862-2.388c-1.752-1.576-2.641-4-2.641-7.178v-21.402l5.928-0.686v20.359c0,1.493,0.176,2.705,0.547,3.587
			c0.351,0.894,0.952,1.588,1.775,1.938c0.815,0.4,1.964,0.604,3.453,0.604c2.196,0,4.969-0.849,8.262-2.564v-23.229L699.838,951.57
			z"/>
		<path fill="#78216B" d="M734.057,968.341h-21.007c0.042,3.443,0.889,5.938,2.5,7.491c1.646,1.554,3.726,2.377,6.293,2.377
			c1.835,0,3.445-0.247,4.798-0.729c1.345-0.437,2.858-1.142,4.487-2.13l2.287,4.211c-3.751,2.423-7.703,3.646-11.849,3.646
			c-4.396,0-7.925-1.226-10.56-3.672c-2.634-2.443-3.951-6.374-3.951-11.688c0-3.022,0.54-5.751,1.646-8.244
			c1.117-2.446,2.729-4.435,4.916-5.939c2.176-1.49,4.863-2.258,8.01-2.258c2.664,0,4.936,0.564,6.821,1.634
			c1.882,1.07,3.306,2.556,4.27,4.438c0.952,1.869,1.423,4.046,1.423,6.443L734.057,968.341z M716.039,958.168
			c-1.382,1.408-2.229,3.36-2.652,5.818h15.008v-0.259c0-2.552-0.594-4.47-1.753-5.763c-1.164-1.309-2.846-1.94-5.01-1.94
			C719.267,956.016,717.385,956.709,716.039,958.168"/>
	</g>
</g>
</svg>
