<?xml version="1.0" encoding="utf-8"?>
<!-- Generator: Adobe Illustrator 14.0.0, SVG Export Plug-In . SVG Version: 6.00 Build 43363)  -->
<!DOCTYPE svg PUBLIC "-//W3C//DTD SVG 1.1//EN" "http://www.w3.org/Graphics/SVG/1.1/DTD/svg11.dtd">
<svg version="1.1" id="Layer_1" xmlns="http://www.w3.org/2000/svg" xmlns:xlink="http://www.w3.org/1999/xlink" x="0px" y="0px"
	 width="1024px" height="316.484px" viewBox="0 0 1024 316.484" enable-background="new 0 0 1024 316.484" xml:space="preserve">
<g>
	<path fill="#78216B" d="M12.808,76.487c25.653-6.699,51.313-13.358,76.947-20.138c3.73-0.989,5.52-0.846,6.036,3.912
		c0.745,6.927,2.576,13.75,4.207,20.547c1.473,6.197,4.461,7.887,10.747,6.359c7.623-1.863,15.253-3.729,22.826-5.792
		c7.676-2.09,8.896-4.277,6.92-11.88c-1.854-7.187-3.548-14.432-5.902-21.448c-0.967-2.879,0.017-3.209,2.14-3.756
		c24.657-6.368,49.293-12.75,73.919-19.196c2.065-0.543,3.615-0.598,4.829,1.562c6.147,11.08,12.389,22.12,18.743,33.436
		c-15.027,0.724-28.389,5.668-41.971,9.446c-6.678,1.861-8.256,6.479-5.686,12.89c2.766,6.885,5.472,13.805,8.505,20.575
		c2.383,5.32,0.847,8.68-4.523,10.252c-6.304,1.842-12.668,3.519-19.076,4.994c-5.32,1.242-9.032-0.578-10.689-6.191
		c-1.983-6.707-4.265-13.319-6.462-19.976c-2.592-7.853-6.936-10.796-14.851-8.988c-10.745,2.445-21.432,5.264-31.99,8.404
		c-7.918,2.359-10.133,6.865-8.48,15.093c1.334,6.65,2.693,13.308,3.962,19.967c1.281,6.729-0.244,9.353-6.908,11.313
		c-5.896,1.731-11.834,3.381-17.834,4.688c-6.346,1.371-8.636-0.356-9.478-6.666c-0.943-7.149-1.708-14.315-2.627-21.479
		c-1.029-8.066-4.754-11.078-12.568-8.971c-13.041,3.535-26.72,5.051-38.833,11.711c-0.497,0.274-1.257,0.084-1.887,0.112V76.487
		H12.808L12.808,76.487z"/>
	<path fill="#78216B" d="M200.091,251.662c4.626-8.232,3.238-15.967,0.708-23.848c-4.738-14.757-9.262-29.568-13.774-44.361
		c-2.141-7.006-0.314-10.348,6.808-12.266c8.811-2.375,17.714-4.382,26.528-6.726c12.753-3.408,16.439-11.076,11.146-22.874
		c-3.814-8.517-7.754-16.981-11.561-25.514c-2.777-6.234-1.623-8.732,5.057-10.717c4.882-1.439,9.831-2.636,14.757-3.921
		c4.903-1.272,9.971-2.137,13.513-7.317c8.847,15.472,17.261,30.164,25.656,44.888c14.303,25.069,28.563,50.143,42.914,75.198
		c1.717,2.986,2.765,4.924-1.956,6.172c-39.184,10.32-78.316,20.826-117.459,31.283C202.04,251.775,201.616,251.662,200.091,251.662
		"/>
	<path fill="#78216B" d="M138.936,269.654c-25.426,6.729-49.386,13.11-73.352,19.459c-14.965,3.947-29.978,7.705-44.874,11.889
		c-4.475,1.281-5.401,0.055-5.418-4.207c-0.264-44.547-0.641-89.08-1.109-133.639c-0.036-3.834,0.379-5.547,5.104-5.232
		c6.826,0.451,13.203-2.772,19.785-4.289c8.147-1.882,10.226-0.541,10.991,7.9c0.846,9.295,1.593,18.59,2.268,27.885
		c0.795,10.859,8.05,16.469,18.73,13.848c10.704-2.631,21.272-5.797,31.918-8.688c9.506-2.6,12.183-0.963,13.79,8.852
		c2.313,14.226,4.688,28.451,6.54,42.769C124.586,256.049,128.166,264.127,138.936,269.654"/>
	<path fill="#A71924" d="M157.017,127.354c5.364,8.319,7.378,17.911,9.342,27.33c0.994,4.73-2.883,8.289-7.569,9.601
		c-9.759,2.748-19.533,5.504-29.433,7.65c-7.857,1.698-11.85-1.261-13.406-9.318c-1.525-7.826-4.539-15.449-3.595-23.643
		c-0.772-4.599,1.603-7.312,5.604-8.722c10.025-3.523,20.385-5.85,30.794-7.887C152.761,121.567,155.854,123.056,157.017,127.354"/>
	<path fill="#CECECE" d="M157.017,127.354c-3.912-2.294-7.929-2.354-12.266-1.13c-7.148,2.022-14.379,3.759-21.598,5.513
		c-4.515,1.102-8.302,3.174-10.802,7.226c-7.115-9.226-7.352-20.486-8.673-31.26c-0.578-4.676,3.566-7.705,7.757-8.934
		c9.524-2.811,19.174-5.234,28.842-7.516c4.011-0.953,8.53,0.275,9.917,3.949C154.096,105.499,160.149,115.511,157.017,127.354"/>
</g>
<title>Plan de travail 2</title>
<g>
	<path fill="#A71924" d="M733.66,15.721L758,79.879v0.592h-9.608L741.617,62h-27.568l-6.695,18.471h-9.216v-0.592l24.34-64.157
		H733.66L733.66,15.721z M716.884,54.514h22.016l-10.988-29.971L716.884,54.514z"/>
	<path fill="#A71924" d="M833.263,15.721V80.47h-9.02V30.885c-1.089,3.088-2.404,6.088-3.938,8.98l-15.754,30.288h-8.901
		L780.37,39.865l-2.243-5.041c-0.75-1.576-1.38-2.914-1.853-3.939V80.47h-8.782V15.721h10.517l14.571,28.593
		c3.023,5.643,5.655,11.483,7.877,17.487c0.873-2.682,1.898-5.313,3.071-7.877c1.313-2.889,2.928-6.158,4.845-9.807l14.849-28.397
		L833.263,15.721L833.263,15.721z"/>
	<path fill="#A71924" d="M878.359,15.721l24.34,64.157v0.592h-9.609L886.236,62h-27.568l-6.695,18.471h-9.06v-0.592l24.341-64.157
		H878.359L878.359,15.721z M861.465,54.514h21.977l-10.949-29.971L861.465,54.514z"/>
	<path fill="#A71924" d="M918.61,77.594c-4.463-2.726-7.95-6.792-9.964-11.619c-2.281-5.609-3.381-11.629-3.229-17.684
		c-0.319-6.674,1.034-13.321,3.938-19.338c2.429-4.662,6.202-8.49,10.83-10.986c4.553-2.301,9.591-3.477,14.689-3.428
		c3.809-0.047,7.603,0.457,11.266,1.498c3.465,1.004,6.777,2.475,9.846,4.371l-3.938,7.01c-4.98-3.201-10.778-4.896-16.699-4.883
		c-5.92-0.457-11.675,2.086-15.32,6.772c-3.58,5.484-5.318,11.97-4.963,18.511c-0.378,6.725,1.447,13.391,5.199,18.984
		c3.644,4.681,9.362,7.259,15.281,6.894c3.121,0.043,6.229-0.396,9.216-1.301c2.944-0.902,5.771-2.146,8.429-3.701l3.702,6.694
		c-3.271,1.936-6.744,3.508-10.358,4.686c-3.609,1.106-7.369,1.652-11.146,1.615C929.523,81.916,923.714,80.496,918.61,77.594z"/>
	<path fill="#A71924" d="M973.946,77.594c-4.44-2.739-7.912-6.804-9.926-11.619c-2.294-5.607-3.407-11.627-3.269-17.684
		c-0.241-6.701,1.222-13.355,4.254-19.338c2.429-4.662,6.201-8.49,10.83-10.986c4.552-2.305,9.59-3.479,14.689-3.428
		c7.441-0.1,14.754,1.936,21.071,5.869l-3.938,7.01c-4.979-3.201-10.778-4.896-16.699-4.883c-5.922-0.473-11.684,2.074-15.319,6.772
		c-3.581,5.484-5.319,11.97-4.963,18.511c-0.378,6.725,1.446,13.391,5.198,18.984c3.636,4.689,9.359,7.271,15.281,6.894
		c3.12,0.037,6.229-0.4,9.217-1.301c2.777-0.943,5.444-2.185,7.955-3.701l3.662,6.694c-3.257,1.936-6.717,3.508-10.317,4.686
		c-3.611,1.104-7.37,1.647-11.146,1.615C984.728,81.879,978.99,80.461,973.946,77.594z"/>
</g>
<path d="M924.399,245.016c-10.137-6.118-18.047-15.325-22.565-26.27c-5.089-12.617-7.555-26.139-7.247-39.738
	c-0.601-15.307,2.622-30.519,9.372-44.268c5.471-10.64,14.114-19.312,24.733-24.813c10.595-5.203,22.267-7.834,34.068-7.68
	c8.585-0.074,17.137,1.066,25.401,3.387c7.954,2.33,15.577,5.664,22.687,9.924l-10.438,19.183
	c-10.964-6.825-23.597-10.491-36.51-10.596c-14.69,0-25.442,4.688-32.334,14.1c-6.893,9.414-10.319,22.528-10.319,39.386
	c0,16.855,3.938,30.76,11.344,40.33c7.404,9.57,18.433,14.336,32.648,14.336c6.545,0.111,13.063-0.848,19.299-2.836
	c6.004-2.033,11.783-4.672,17.251-7.877l10.2,18.51c-7.438,4.511-15.366,8.156-23.631,10.871
	c-8.077,2.465-16.484,3.674-24.931,3.584C949.789,255.043,936.277,251.744,924.399,245.016z"/>
<g>
	<polygon fill="#A71924" points="801.632,166.906 822.694,154.744 794.334,105.61 766.237,105.61 	"/>
	<polygon fill="#A71924" points="837.969,154.744 859.043,166.906 894.439,105.61 866.348,105.61 	"/>
	<path fill="#A71924" d="M817.853,146.36c-5.393-9.257-14.446-14.03-20.244-10.671c-5.78,3.356-6.148,13.562-0.82,22.83l0,0
		l21.773,37.722l21.066-12.168L817.853,146.36L817.853,146.36z"/>
	<path fill="#A71924" d="M863.88,158.518c5.323-9.292,4.931-19.517-0.874-22.869c-5.803-3.324-14.821,1.461-20.188,10.702l0,0
		l-21.774,37.729l21.064,12.156L863.88,158.518L863.88,158.518z"/>
	<path fill="#78216B" d="M490.63,169.203v71.69c-9.436,4.632-18.275,8.005-26.513,10.099c-8.242,2.1-17.228,3.154-26.966,3.154
		c-16.331,0-29.662-3.232-39.999-9.671c-10.335-6.422-17.899-15.229-22.695-26.401c-4.792-11.158-7.186-24.226-7.186-39.213
		c0-17.523,3.177-31.977,9.548-43.36c6.36-11.391,14.865-19.703,25.503-24.949c10.633-5.242,22.539-7.86,35.727-7.86
		c18.424,0,34.75,4.493,48.982,13.479l-10.811,18.877c-11.264-7.186-23.428-10.778-36.488-10.778
		c-15.77,0-27.367,4.718-34.802,14.152c-7.438,9.439-11.149,22.548-11.149,39.317c0,17.828,3.494,31.346,10.481,40.563
		c6.984,9.209,18.294,13.822,33.927,13.822c9.163,0,18.105-1.574,26.819-4.721v-37.086h-34.604l2.922-21.115H490.63L490.63,169.203z
		"/>
	<path fill="#78216B" d="M631.506,249.633v1.586h-28.988l-39.313-55.063h-17.519v55.063h-25.618V105.61h48.083
		c11.987,0,22.055,1.866,30.218,5.61c8.184,3.744,14.297,8.914,18.427,15.504c4.119,6.597,6.176,14.23,6.176,22.919
		c0,10.333-2.811,19.357-8.427,27.07c-5.615,7.724-13.83,13.148-24.605,16.301L631.506,249.633z M545.678,175.934h19.317
		c10.193,0,17.98-2.133,23.363-6.397c5.403-4.273,8.084-10.601,8.084-18.988c0-7.791-2.424-13.71-7.292-17.753
		c-4.872-4.037-11.953-6.061-21.243-6.061h-22.234L545.678,175.934L545.678,175.934z"/>
	<polygon fill="#78216B" points="678.247,229.861 747.678,229.861 747.678,251.218 652.634,251.218 652.634,105.61 746.545,105.61 
		746.545,126.735 678.247,126.735 678.247,166.721 737.564,166.721 734.65,187.394 678.247,187.394 	"/>
	<path fill="#78216B" d="M924.789,244.506c-10.164-6.221-17.672-14.947-22.451-26.186c-4.801-11.232-7.19-24.412-7.19-39.553
		c0-17.974,3.096-32.65,9.33-44.034c6.21-11.381,14.399-19.62,24.595-24.722c10.188-5.082,21.491-7.635,33.94-7.635
		c9.132,0,17.55,1.133,25.268,3.377c7.705,2.242,15.244,5.535,22.581,9.885l-10.396,19.101
		c-11.724-7.042-23.853-10.563-36.355-10.563c-14.592,0-25.336,4.685-32.183,14.05c-6.856,9.36-10.273,22.429-10.273,39.201
		c0,17.229,3.773,30.599,11.295,40.115c7.53,9.514,18.37,14.271,32.531,14.271c7.23,0,13.615-0.943,19.184-2.81
		c5.564-1.879,11.297-4.522,17.172-7.977l10.156,18.42c-8.083,4.793-15.918,8.399-23.494,10.793
		c-7.555,2.391-15.817,3.596-24.832,3.596C947.934,253.834,934.981,250.715,924.789,244.506"/>
	<path fill="#A71924" d="M843.347,187.334c0-10.672-5.892-19.32-13.166-19.32c-7.271,0-13.163,8.648-13.163,19.32l0,0v52.658h26.333
		v-52.658H843.347z"/>
	<path fill="#A71924" d="M843.347,227.631c0-10.674-5.892-19.322-13.166-19.322c-7.271,0-13.163,8.652-13.163,19.322v23.588h26.333
		v-23.588H843.347z"/>
</g>
</svg>
